<svg xmlns="http://www.w3.org/2000/svg" xmlns:xlink="http://www.w3.org/1999/xlink" width="500" zoomAndPan="magnify" viewBox="0 0 375 374.999991" height="500" preserveAspectRatio="xMidYMid meet" version="1.0"><defs><clipPath id="4812fc7520"><path d="M 35.777344 37.5 L 350.726562 37.5 L 350.726562 352.449219 L 35.777344 352.449219 Z M 35.777344 37.5 " clip-rule="nonzero"/></clipPath><clipPath id="4d83ee66c5"><path d="M 193.253906 37.5 C 106.28125 37.5 35.777344 108.003906 35.777344 194.976562 C 35.777344 281.945312 106.28125 352.449219 193.253906 352.449219 C 280.222656 352.449219 350.726562 281.945312 350.726562 194.976562 C 350.726562 108.003906 280.222656 37.5 193.253906 37.5 Z M 193.253906 37.5 " clip-rule="nonzero"/></clipPath><clipPath id="35d468d0d7"><path d="M 21 54 L 358 54 L 358 330 L 21 330 Z M 21 54 " clip-rule="nonzero"/></clipPath><clipPath id="44ba020395"><path d="M 5.164062 80.550781 L 350.847656 40.472656 L 382.027344 309.421875 L 36.34375 349.496094 Z M 5.164062 80.550781 " clip-rule="nonzero"/></clipPath><clipPath id="8875e24be5"><path d="M 5.164062 80.550781 L 350.847656 40.472656 L 382.027344 309.421875 L 36.34375 349.496094 Z M 5.164062 80.550781 " clip-rule="nonzero"/></clipPath><clipPath id="6c7810ec9d"><path d="M 5.164062 80.550781 L 350.847656 40.472656 L 382.027344 309.421875 L 36.34375 349.496094 Z M 5.164062 80.550781 " clip-rule="nonzero"/></clipPath><clipPath id="b500605452"><path d="M 85 93 L 286.527344 93 L 286.527344 284 L 85 284 Z M 85 93 " clip-rule="nonzero"/></clipPath><clipPath id="0c02ea0f83"><path d="M 84.777344 92.761719 L 286.527344 92.761719 L 286.527344 284.761719 L 84.777344 284.761719 Z M 84.777344 92.761719 " clip-rule="nonzero"/></clipPath></defs><rect x="-37.5" width="450" fill="#ffffff" y="-37.499999" height="449.999989" fill-opacity="1"/><rect x="-37.5" width="450" fill="#fffffe" y="-37.499999" height="449.999989" fill-opacity="1"/><g clip-path="url(#4812fc7520)"><g clip-path="url(#4d83ee66c5)"><path fill="#ffe5d9" d="M 35.777344 37.5 L 350.726562 37.5 L 350.726562 352.449219 L 35.777344 352.449219 Z M 35.777344 37.5 " fill-opacity="1" fill-rule="nonzero"/></g></g><g clip-path="url(#35d468d0d7)"><g clip-path="url(#44ba020395)"><g clip-path="url(#8875e24be5)"><g clip-path="url(#6c7810ec9d)"><path fill="#272023" d="M 212.433594 58.179688 C 224.722656 56.753906 236.191406 56.171875 247.6875 56.5 C 250.265625 56.535156 253.003906 56.546875 255.664062 56.570312 C 271.109375 56.605469 287.054688 56.667969 301.789062 60.601562 C 318.402344 64.984375 330.792969 73.757812 339.753906 87.324219 C 342.570312 91.5625 345.105469 96.25 347.167969 101.15625 C 357.660156 126.5 359.160156 158.777344 351.648438 197.082031 C 349.09375 205.84375 345.683594 214.371094 341.703125 222.300781 C 314.820312 281.855469 266.578125 321.148438 212.515625 327.414062 C 209.078125 327.8125 205.617188 328.046875 202.148438 328.199219 C 195.457031 328.480469 188.699219 328.183594 181.972656 327.46875 L 181.890625 327.476562 L 181.808594 327.488281 C 147.847656 328.105469 110.921875 318.941406 83.007812 303.003906 C 58.644531 289.0625 28.644531 262.992188 23.8125 217.738281 C 20.707031 190.960938 26.125 159.621094 38.597656 131.867188 C 41.472656 125.890625 44.988281 120.417969 48.910156 115.566406 C 53.191406 110.253906 57.894531 105.726562 63.332031 101.777344 C 68.152344 98.230469 73.527344 95.199219 79.605469 92.503906 C 89.15625 89.652344 98.847656 86.621094 108.222656 83.707031 C 142.039062 73.230469 176.886719 62.300781 212.433594 58.179688 M 212.246094 56.542969 C 166.539062 61.839844 122.921875 78.019531 79.097656 90.984375 C 73.257812 93.570312 67.714844 96.621094 62.433594 100.46875 C 57.152344 104.316406 52.210938 108.957031 47.628906 114.550781 C 43.421875 119.769531 39.914062 125.324219 37.097656 131.125 C 25.085938 157.832031 18.851562 189.265625 22.175781 217.929688 C 30.835938 299.09375 119.953125 330.261719 181.664062 329.082031 C 188.558594 329.859375 195.390625 330.0625 202.09375 329.867188 C 205.644531 329.703125 209.101562 329.46875 212.625 329.0625 C 268.652344 322.566406 316.632812 281.730469 343.035156 223.0625 C 347.492188 214.246094 350.742188 205.734375 353.105469 197.492188 C 359.375 165.640625 360.957031 130.597656 348.511719 100.585938 C 346.449219 95.679688 343.914062 90.992188 340.976562 86.4375 C 318.699219 52.5 280.171875 55.308594 247.589844 54.933594 C 235.675781 54.574219 223.875 55.195312 212.246094 56.542969 Z M 212.246094 56.542969 " fill-opacity="1" fill-rule="nonzero"/></g></g></g></g><g clip-path="url(#b500605452)"><path fill="#fffffe" d="M 156.144531 96.128906 C 162.878906 94.445312 174.324219 93.101562 185.769531 93.101562 C 197.214844 93.101562 208.660156 94.53125 215.390625 96.128906 C 222.628906 97.898438 220.863281 98.484375 224.988281 102.945312 C 229.109375 107.492188 235.253906 113.804688 233.570312 119.609375 C 233.570312 119.609375 241.988281 123.480469 247.878906 129.625 C 253.683594 135.769531 259.828125 149.488281 266.980469 175.828125 C 274.136719 202.171875 276.40625 215.296875 280.785156 229.269531 C 285.160156 243.324219 285.582031 254.011719 284.234375 261.921875 L 286.507812 276.398438 C 286.507812 276.398438 278.847656 283.636719 262.859375 283.886719 L 256.882812 270.085938 C 256.882812 270.085938 251.75 264.027344 249.644531 257.882812 C 247.542969 251.65625 243.164062 230.277344 240.21875 220.601562 C 240.21875 220.601562 240.722656 236.421875 241.3125 241.976562 C 241.902344 247.53125 242.238281 252.160156 238.789062 257.882812 L 237.191406 273.199219 C 237.191406 273.199219 221.453125 278.082031 185.851562 278.082031 C 150.167969 278.082031 134.515625 273.199219 134.515625 273.199219 L 132.917969 257.882812 C 129.464844 252.246094 129.71875 247.617188 130.390625 241.976562 C 130.980469 236.421875 131.484375 220.601562 131.484375 220.601562 C 128.539062 230.277344 124.164062 251.65625 122.058594 257.882812 C 119.957031 264.109375 114.820312 270.085938 114.820312 270.085938 L 108.847656 283.886719 C 92.773438 283.636719 85.199219 276.398438 85.199219 276.398438 L 87.46875 261.921875 C 86.125 254.097656 86.542969 243.324219 90.921875 229.269531 C 95.296875 215.214844 97.570312 202.171875 104.722656 175.828125 C 111.707031 149.570312 117.851562 135.851562 123.742188 129.707031 C 129.550781 123.566406 138.050781 119.695312 138.050781 119.695312 C 136.367188 113.886719 142.511719 107.574219 146.632812 103.03125 C 150.757812 98.484375 148.90625 97.980469 156.144531 96.128906 Z M 156.144531 96.128906 " fill-opacity="1" fill-rule="evenodd"/></g><g clip-path="url(#0c02ea0f83)"><path fill="#000000" d="M 131.738281 220.601562 C 131.738281 220.851562 131.234375 236.507812 130.644531 241.976562 C 130.054688 247.449219 129.71875 252.078125 133.167969 257.628906 C 133.167969 257.714844 133.253906 257.714844 133.253906 257.800781 L 134.769531 272.863281 C 136.789062 273.453125 152.609375 277.660156 185.769531 277.660156 L 185.769531 278.332031 C 150.085938 278.332031 134.347656 273.453125 134.347656 273.453125 C 134.179688 273.453125 134.09375 273.285156 134.09375 273.199219 C 134.09375 273.199219 132.496094 257.96875 132.496094 257.96875 C 129.046875 252.246094 129.296875 247.617188 129.886719 241.976562 C 130.308594 237.851562 130.726562 228.175781 130.898438 223.378906 C 127.949219 233.898438 124.164062 252.328125 122.226562 258.050781 C 120.207031 264.027344 115.410156 269.832031 114.992188 270.339844 L 109.097656 284.058594 C 109.015625 284.226562 108.929688 284.226562 108.761719 284.226562 C 92.519531 283.972656 84.863281 276.652344 84.863281 276.652344 C 84.777344 276.566406 84.777344 276.484375 84.777344 276.398438 C 84.777344 276.398438 87.050781 262.007812 87.050781 262.007812 C 85.703125 254.097656 86.125 243.324219 90.5 229.269531 C 94.875 215.214844 97.148438 202.171875 104.300781 175.828125 C 111.457031 149.402344 117.597656 135.601562 123.492188 129.457031 C 128.792969 123.902344 136.113281 120.199219 137.628906 119.441406 C 137.039062 117.167969 137.628906 114.730469 138.808594 112.457031 C 140.574219 108.921875 143.855469 105.554688 146.296875 102.777344 C 147.726562 101.179688 148.484375 100.085938 149.074219 99.242188 C 149.578125 98.652344 150 98.148438 150.589844 97.726562 C 151.601562 97.054688 153.03125 96.550781 156.058594 95.792969 C 162.792969 94.195312 174.324219 92.761719 185.769531 92.761719 C 197.214844 92.761719 208.742188 94.195312 215.476562 95.792969 C 218.421875 96.550781 219.9375 97.054688 220.945312 97.726562 C 221.535156 98.148438 221.957031 98.570312 222.460938 99.160156 C 223.136719 100 223.808594 101.09375 225.324219 102.695312 C 227.847656 105.472656 231.046875 108.835938 232.8125 112.371094 C 233.992188 114.730469 234.582031 117.085938 233.992188 119.355469 C 235.507812 120.03125 242.828125 123.816406 248.128906 129.371094 C 254.019531 135.515625 260.164062 149.316406 267.320312 175.742188 C 274.472656 202.085938 276.746094 215.128906 281.121094 229.183594 C 285.496094 243.238281 285.917969 254.011719 284.570312 261.921875 L 286.757812 276.398438 C 286.757812 276.484375 286.757812 276.652344 286.675781 276.734375 C 286.675781 276.734375 279.015625 284.058594 262.773438 284.308594 C 262.605469 284.308594 262.523438 284.226562 262.4375 284.140625 C 262.4375 284.140625 256.546875 270.421875 256.546875 270.421875 C 256.125 269.917969 251.328125 264.109375 249.308594 258.136719 C 247.371094 252.414062 243.585938 233.980469 240.640625 223.546875 C 240.808594 228.34375 241.230469 238.023438 241.648438 242.144531 C 242.238281 247.785156 242.574219 252.496094 239.042969 258.136719 L 237.441406 273.367188 C 237.441406 273.535156 237.359375 273.621094 237.191406 273.621094 C 237.191406 273.621094 221.453125 278.503906 185.769531 278.503906 L 185.769531 277.828125 C 218.925781 277.828125 234.832031 273.621094 236.769531 273.03125 L 238.285156 257.96875 C 238.285156 257.882812 238.285156 257.882812 238.367188 257.800781 C 241.816406 252.246094 241.480469 247.617188 240.890625 242.144531 C 240.304688 236.589844 239.796875 220.9375 239.796875 220.769531 C 239.796875 220.515625 238.871094 199.898438 237.359375 182.308594 C 237.359375 182.140625 237.441406 181.972656 237.695312 181.972656 C 237.863281 181.972656 238.03125 182.054688 238.03125 182.308594 C 239.546875 199.5625 240.472656 219.675781 240.472656 220.769531 C 243.417969 230.449219 247.792969 251.824219 249.898438 257.96875 C 252 264.109375 257.050781 270.085938 257.050781 270.085938 C 257.050781 270.085938 257.050781 270.171875 257.136719 270.171875 L 263.027344 283.71875 C 277.585938 283.46875 285.074219 277.410156 286.085938 276.484375 L 283.8125 262.257812 C 283.8125 262.257812 283.8125 262.175781 283.8125 262.175781 C 285.160156 254.347656 284.738281 243.660156 280.363281 229.691406 C 275.988281 215.636719 273.714844 202.589844 266.5625 176.25 C 259.492188 149.992188 253.347656 136.359375 247.542969 130.214844 C 242.324219 124.742188 235.085938 121.039062 233.65625 120.367188 C 232.898438 121.039062 229.445312 124.492188 218.925781 126.425781 C 218.675781 126.425781 218.507812 126.511719 218.253906 126.59375 C 210.59375 128.277344 205.460938 128.53125 200.074219 129.035156 C 200.160156 131.898438 200.496094 153.019531 199.992188 162.363281 C 200.242188 162.445312 200.410156 162.53125 200.664062 162.613281 C 201.253906 162.953125 201.589844 163.371094 201.589844 164.046875 C 201.589844 164.71875 201.253906 165.140625 200.664062 165.390625 C 200.160156 165.5625 199.484375 165.644531 198.730469 165.644531 C 197.972656 165.644531 197.296875 165.5625 196.792969 165.390625 C 196.203125 165.140625 195.867188 164.71875 195.867188 164.046875 C 195.867188 163.457031 196.203125 162.953125 196.792969 162.613281 C 196.960938 162.53125 197.214844 162.445312 197.464844 162.363281 C 197.550781 153.359375 197.464844 131.898438 197.464844 129.371094 C 197.296875 129.371094 197.128906 129.371094 196.960938 129.457031 C 193.175781 129.960938 190.058594 130.632812 188.125 130.886719 C 186.609375 131.054688 185.851562 130.972656 185.769531 130.972656 C 185.601562 130.972656 184.84375 130.972656 183.496094 130.71875 C 181.644531 130.382812 178.613281 129.792969 174.574219 129.289062 C 174.40625 129.289062 174.238281 129.289062 174.070312 129.203125 C 174.070312 131.730469 173.984375 153.1875 174.070312 162.195312 C 174.324219 162.277344 174.574219 162.363281 174.742188 162.445312 C 175.332031 162.785156 175.667969 163.203125 175.667969 163.878906 C 175.667969 164.550781 175.332031 164.972656 174.742188 165.222656 C 174.238281 165.390625 173.566406 165.476562 172.808594 165.476562 C 172.050781 165.476562 171.378906 165.390625 170.871094 165.222656 C 170.28125 164.972656 169.945312 164.550781 169.945312 163.878906 C 169.945312 163.289062 170.28125 162.785156 170.871094 162.445312 C 171.039062 162.363281 171.292969 162.277344 171.546875 162.195312 C 171.039062 152.9375 171.378906 131.730469 171.460938 128.867188 C 165.992188 128.445312 160.855469 128.195312 153.199219 126.511719 C 153.03125 126.511719 152.777344 126.425781 152.609375 126.425781 C 142.089844 124.492188 138.640625 121.039062 137.882812 120.113281 C 136.449219 120.789062 129.128906 124.40625 123.996094 129.960938 C 118.105469 136.105469 112.046875 149.738281 104.976562 175.996094 C 97.820312 202.339844 95.550781 215.46875 91.171875 229.4375 C 86.796875 243.40625 86.375 254.097656 87.722656 261.921875 C 87.722656 261.921875 87.722656 262.007812 87.722656 262.007812 L 85.449219 276.230469 C 86.542969 277.15625 94.035156 283.214844 108.511719 283.46875 L 114.402344 269.917969 C 114.402344 269.917969 114.402344 269.832031 114.484375 269.832031 C 114.484375 269.832031 119.535156 263.859375 121.640625 257.714844 C 123.742188 251.488281 128.121094 230.195312 131.066406 220.515625 C 131.148438 219.421875 131.992188 199.308594 133.503906 182.054688 C 133.503906 181.886719 133.675781 181.71875 133.84375 181.71875 C 134.011719 181.71875 134.179688 181.886719 134.179688 182.054688 C 132.664062 199.730469 131.738281 220.347656 131.738281 220.601562 Z M 282.46875 262.847656 C 282.46875 262.847656 272.117188 269.496094 258.3125 269.832031 C 258.144531 269.832031 258.0625 269.917969 258.0625 270.085938 C 258.0625 270.253906 258.144531 270.339844 258.3125 270.339844 C 272.199219 270.085938 282.71875 263.269531 282.71875 263.269531 C 282.804688 263.183594 282.886719 263.015625 282.804688 262.933594 C 282.71875 262.847656 282.550781 262.765625 282.46875 262.847656 Z M 88.816406 263.269531 C 88.816406 263.269531 99.335938 270.003906 113.222656 270.339844 C 113.390625 270.339844 113.476562 270.253906 113.476562 270.085938 C 113.476562 269.917969 113.390625 269.832031 113.222656 269.832031 C 99.421875 269.582031 89.070312 262.847656 89.070312 262.847656 C 88.984375 262.765625 88.816406 262.765625 88.734375 262.933594 C 88.648438 263.101562 88.648438 263.183594 88.816406 263.269531 Z M 185.769531 263.355469 C 217.496094 263.355469 236.179688 259.144531 236.179688 259.144531 C 236.347656 259.144531 236.433594 258.976562 236.347656 258.808594 C 236.347656 258.640625 236.179688 258.554688 236.011719 258.640625 C 236.011719 258.640625 217.414062 262.847656 185.769531 262.847656 C 154.125 262.847656 135.523438 258.640625 135.523438 258.640625 C 135.355469 258.640625 135.273438 258.726562 135.1875 258.808594 C 135.1875 258.976562 135.273438 259.0625 135.355469 259.144531 C 135.355469 259.144531 154.039062 263.355469 185.769531 263.355469 Z M 152.527344 244.921875 C 152.695312 247.785156 153.03125 251.992188 153.28125 254.179688 C 153.367188 254.769531 153.453125 255.273438 153.535156 255.441406 C 153.789062 255.527344 154.378906 255.609375 155.21875 255.695312 C 159.679688 256.285156 171.460938 257.460938 185.769531 257.460938 L 185.769531 258.136719 L 185.769531 257.460938 L 185.769531 258.136719 C 171.378906 258.136719 159.59375 256.957031 155.132812 256.367188 C 153.957031 256.199219 153.28125 256.117188 153.199219 256.03125 C 153.113281 256.03125 153.03125 255.949219 152.945312 255.78125 C 152.863281 255.527344 152.695312 255.023438 152.609375 254.265625 C 152.105469 250.730469 151.683594 241.976562 151.683594 241.976562 C 151.683594 241.894531 151.683594 241.808594 151.769531 241.726562 C 161.78125 229.691406 165.65625 216.980469 165.65625 216.980469 C 165.738281 216.8125 165.824219 216.730469 165.992188 216.730469 C 169.019531 216.980469 177.351562 217.488281 185.769531 217.488281 C 194.101562 217.488281 202.683594 216.980469 205.546875 216.730469 C 205.714844 216.730469 205.882812 216.8125 205.882812 216.980469 C 205.882812 216.980469 209.753906 229.691406 219.769531 241.726562 C 219.851562 241.808594 219.851562 241.894531 219.851562 241.976562 C 219.851562 241.976562 219.347656 250.644531 218.925781 254.265625 C 218.84375 255.023438 218.675781 255.609375 218.589844 255.78125 C 218.507812 255.949219 218.421875 256.03125 218.339844 256.03125 C 218.253906 256.117188 217.496094 256.199219 216.402344 256.367188 C 211.941406 256.957031 200.074219 258.136719 185.769531 258.136719 L 185.769531 257.460938 C 200.074219 257.460938 211.859375 256.285156 216.316406 255.695312 C 217.242188 255.609375 217.832031 255.527344 218 255.441406 C 218.085938 255.191406 218.167969 254.769531 218.253906 254.179688 C 218.589844 251.90625 218.84375 247.785156 219.011719 244.921875 C 208.914062 235.414062 203.695312 219.757812 202.9375 217.65625 C 198.980469 217.90625 192.25 218.246094 185.683594 218.246094 C 179.035156 218.246094 172.472656 217.90625 168.429688 217.65625 C 167.84375 219.757812 162.625 235.414062 152.527344 244.921875 Z M 219.09375 244.25 C 219.179688 243.15625 219.179688 242.398438 219.265625 242.0625 C 210.007812 230.953125 206.050781 219.339844 205.378906 217.488281 C 204.871094 217.488281 204.285156 217.570312 203.527344 217.570312 C 204.367188 220.097656 209.417969 234.992188 219.09375 244.25 Z M 168.011719 217.65625 C 167.335938 217.570312 166.664062 217.570312 166.160156 217.570312 C 165.570312 219.421875 161.53125 231.035156 152.273438 242.144531 C 152.273438 242.480469 152.355469 243.238281 152.441406 244.332031 C 162.121094 234.992188 167.167969 220.097656 168.011719 217.65625 Z M 245.269531 132.402344 C 245.269531 132.402344 238.535156 145.109375 237.695312 157.0625 C 236.851562 169.011719 237.105469 176.921875 237.105469 176.921875 C 237.105469 177.089844 237.191406 177.175781 237.359375 177.175781 C 237.527344 177.175781 237.609375 177.089844 237.609375 176.921875 C 237.609375 176.921875 237.359375 169.011719 238.199219 157.144531 C 239.042969 145.277344 245.691406 132.65625 245.691406 132.65625 C 245.773438 132.570312 245.691406 132.402344 245.605469 132.316406 C 245.519531 132.234375 245.351562 132.316406 245.269531 132.402344 Z M 125.761719 132.65625 C 125.761719 132.65625 132.410156 145.195312 133.253906 157.144531 C 134.179688 169.011719 133.925781 176.921875 133.925781 176.921875 C 133.925781 177.089844 134.011719 177.175781 134.179688 177.175781 C 134.347656 177.175781 134.429688 177.089844 134.429688 176.921875 C 134.429688 176.921875 134.683594 169.011719 133.84375 157.0625 C 133 145.109375 126.269531 132.402344 126.269531 132.402344 C 126.183594 132.316406 126.015625 132.234375 125.929688 132.316406 C 125.761719 132.402344 125.679688 132.484375 125.761719 132.65625 Z M 172.808594 162.785156 C 173.480469 162.785156 173.984375 162.867188 174.40625 163.121094 C 174.742188 163.289062 174.996094 163.539062 174.996094 163.960938 C 174.996094 164.296875 174.742188 164.550781 174.492188 164.636719 C 174.070312 164.804688 173.480469 164.886719 172.808594 164.886719 C 172.132812 164.886719 171.546875 164.804688 171.125 164.636719 C 170.789062 164.464844 170.621094 164.296875 170.621094 163.960938 C 170.621094 163.625 170.871094 163.371094 171.207031 163.121094 C 171.546875 162.867188 172.132812 162.785156 172.808594 162.785156 Z M 198.730469 162.785156 C 199.402344 162.785156 199.90625 162.867188 200.328125 163.121094 C 200.664062 163.289062 200.917969 163.539062 200.917969 163.960938 C 200.917969 164.296875 200.664062 164.550781 200.410156 164.636719 C 199.992188 164.804688 199.402344 164.886719 198.730469 164.886719 C 198.054688 164.886719 197.464844 164.804688 197.046875 164.636719 C 196.710938 164.464844 196.539062 164.296875 196.539062 163.960938 C 196.539062 163.625 196.792969 163.371094 197.128906 163.121094 C 197.550781 162.867188 198.140625 162.785156 198.730469 162.785156 Z M 172.050781 129.035156 C 171.964844 132.066406 171.714844 152.851562 172.132812 162.109375 C 172.304688 162.109375 172.554688 162.109375 172.722656 162.109375 C 172.890625 162.109375 173.144531 162.109375 173.3125 162.109375 C 173.230469 152.851562 173.3125 131.222656 173.3125 129.121094 C 172.890625 129.121094 172.472656 129.121094 172.050781 129.035156 Z M 199.484375 129.035156 C 199.066406 129.121094 198.644531 129.121094 198.222656 129.203125 C 198.222656 131.308594 198.308594 152.9375 198.222656 162.195312 C 198.390625 162.195312 198.5625 162.195312 198.8125 162.195312 C 199.066406 162.195312 199.234375 162.195312 199.402344 162.195312 C 199.824219 152.9375 199.484375 132.066406 199.484375 129.035156 Z M 233.234375 119.527344 C 233.824219 117.335938 233.316406 114.980469 232.140625 112.792969 C 230.371094 109.34375 227.175781 105.976562 224.734375 103.28125 C 223.472656 101.9375 222.796875 100.925781 222.210938 100.085938 C 221.621094 99.328125 221.199219 98.824219 220.527344 98.316406 C 219.601562 97.644531 218.167969 97.222656 215.308594 96.464844 C 208.574219 94.78125 197.128906 93.4375 185.769531 93.4375 C 174.40625 93.4375 162.960938 94.867188 156.230469 96.464844 C 153.367188 97.222656 151.9375 97.726562 151.011719 98.316406 C 150.335938 98.824219 149.917969 99.328125 149.328125 100.085938 C 148.738281 100.84375 148.066406 101.851562 146.800781 103.28125 C 144.363281 105.976562 141.164062 109.257812 139.398438 112.792969 C 138.21875 115.066406 137.714844 117.335938 138.300781 119.527344 C 138.554688 119.945312 141.417969 123.734375 152.695312 125.753906 C 152.945312 125.753906 153.113281 125.835938 153.367188 125.921875 C 162.457031 127.859375 168.09375 127.859375 174.660156 128.699219 C 178.699219 129.203125 181.644531 129.792969 183.582031 130.128906 C 184.421875 130.296875 185.011719 130.296875 185.433594 130.296875 C 185.261719 129.121094 184.335938 125.082031 178.53125 119.945312 C 172.21875 114.390625 161.195312 110.4375 155.554688 106.3125 C 153.03125 104.460938 151.515625 102.527344 151.851562 100.335938 C 151.851562 100.167969 152.019531 100 152.273438 100.085938 C 152.441406 100.085938 152.609375 100.253906 152.527344 100.503906 C 152.355469 101.683594 152.945312 102.863281 153.957031 104.039062 C 155.050781 105.21875 156.734375 106.398438 158.667969 107.574219 C 162.203125 109.59375 166.75 111.699219 170.957031 114.054688 C 172.304688 113.886719 178.953125 113.046875 185.769531 113.046875 C 192.585938 113.046875 199.234375 113.886719 200.582031 114.054688 C 204.789062 111.699219 209.417969 109.59375 212.953125 107.492188 C 214.886719 106.3125 216.570312 105.21875 217.664062 103.957031 C 218.675781 102.863281 219.265625 101.683594 219.011719 100.421875 C 219.011719 100.253906 219.09375 100.085938 219.265625 100 C 219.433594 100 219.601562 100.085938 219.683594 100.253906 C 220.019531 102.355469 218.589844 104.292969 215.980469 106.230469 C 210.34375 110.351562 199.316406 114.308594 193.007812 119.863281 C 187.199219 124.996094 186.273438 129.035156 186.105469 130.214844 C 186.441406 130.214844 187.03125 130.128906 188.039062 130.046875 C 189.976562 129.707031 193.089844 129.035156 196.878906 128.613281 C 203.441406 127.773438 209.082031 127.773438 218.167969 125.835938 C 218.421875 125.753906 218.589844 125.753906 218.84375 125.667969 C 230.121094 123.734375 232.980469 119.945312 233.234375 119.527344 Z M 185.769531 115.738281 C 181.222656 115.738281 176.679688 116.160156 174.910156 116.410156 C 176.425781 117.335938 177.773438 118.347656 179.035156 119.441406 C 183.582031 123.398438 185.261719 126.847656 185.851562 128.785156 C 186.441406 126.761719 188.125 123.398438 192.667969 119.441406 C 193.847656 118.347656 195.277344 117.335938 196.792969 116.410156 C 194.859375 116.160156 190.3125 115.738281 185.769531 115.738281 Z M 185.769531 113.550781 C 179.792969 113.550781 173.902344 114.222656 171.714844 114.476562 C 172.554688 114.980469 173.398438 115.402344 174.15625 115.90625 C 175.25 115.738281 180.464844 115.148438 185.769531 115.148438 C 191.070312 115.148438 196.203125 115.738281 197.382812 115.90625 C 198.140625 115.402344 198.980469 114.898438 199.824219 114.476562 C 197.636719 114.222656 191.742188 113.550781 185.769531 113.550781 Z M 185.769531 96.464844 C 169.945312 96.464844 158.835938 99.242188 158.835938 99.242188 C 158.667969 99.242188 158.585938 99.410156 158.667969 99.578125 C 158.667969 99.75 158.835938 99.832031 159.003906 99.75 C 159.003906 99.75 170.03125 97.054688 185.769531 97.054688 C 201.507812 97.054688 212.53125 99.75 212.53125 99.75 C 212.699219 99.75 212.785156 99.664062 212.867188 99.578125 C 212.867188 99.410156 212.785156 99.328125 212.699219 99.242188 C 212.699219 99.242188 201.589844 96.464844 185.769531 96.464844 Z M 185.769531 96.464844 " fill-opacity="1" fill-rule="evenodd"/></g></svg>