<?xml version="1.0" standalone="no"?>
<!DOCTYPE svg PUBLIC "-//W3C//DTD SVG 20010904//EN"
 "http://www.w3.org/TR/2001/REC-SVG-20010904/DTD/svg10.dtd">
<svg version="1.0" xmlns="http://www.w3.org/2000/svg"
 width="80.000000pt" height="80.000000pt" viewBox="0 0 80.000000 80.000000"
 preserveAspectRatio="xMidYMid meet">
<metadata>
Created by potrace 1.14, written by Peter Selinger 2001-2017
</metadata>
<g transform="translate(0.000000,80.000000) scale(0.100000,-0.100000)"
fill="#000000" stroke="none">
<path d="M470 730 c0 -5 -7 -10 -15 -10 -12 0 -15 -13 -15 -55 l0 -55 -85 0
c-69 0 -85 3 -85 15 0 8 -4 15 -10 15 -5 0 -10 -7 -10 -15 0 -10 -10 -15 -33
-15 -20 0 -42 -8 -56 -21 -22 -20 -23 -27 -18 -108 3 -47 6 -87 6 -88 1 -2 15
-3 31 -3 23 0 30 -4 30 -20 0 -11 -4 -20 -10 -20 -5 0 -10 -4 -10 -10 0 -5 14
-10 30 -10 17 0 30 5 30 10 0 6 -4 10 -10 10 -5 0 -10 9 -10 20 0 15 7 20 29
20 25 0 31 5 36 30 6 29 9 30 60 30 63 0 74 -12 71 -75 -3 -65 -4 -65 -145
-65 -120 0 -129 -1 -149 -23 -31 -33 -32 -131 -2 -149 11 -7 20 -21 20 -30 0
-15 9 -18 60 -18 53 0 60 2 60 20 0 19 7 20 130 20 123 0 130 -1 130 -20 0
-18 7 -20 60 -20 52 0 60 2 60 19 0 10 7 24 15 31 12 10 15 40 15 149 0 132 1
137 23 146 38 17 36 115 -3 115 -11 0 -20 4 -20 8 0 22 -43 52 -75 52 -32 0
-35 2 -35 30 0 17 -4 30 -10 30 -5 0 -10 -13 -10 -30 0 -20 -5 -30 -15 -30
-12 0 -15 13 -15 55 0 42 -3 55 -15 55 -8 0 -15 5 -15 10 0 6 -4 10 -10 10 -5
0 -10 -4 -10 -10z m30 -75 c0 -38 -3 -45 -20 -45 -17 0 -20 7 -20 45 0 38 3
45 20 45 17 0 20 -7 20 -45z m144 -80 c13 -14 16 -43 16 -184 0 -116 -4 -171
-12 -179 -9 -9 -9 -12 1 -12 7 0 11 -9 9 -22 l-3 -23 -260 0 -260 0 -2 50 c-2
80 8 85 152 85 149 0 158 5 161 83 4 81 -11 97 -90 97 -61 0 -64 -1 -76 -30
-11 -28 -16 -30 -61 -30 -27 0 -49 1 -49 3 -12 104 -11 145 4 159 24 24 446
27 470 3z m66 -85 c0 -29 -4 -40 -15 -40 -11 0 -15 11 -15 40 0 29 4 40 15 40
11 0 15 -11 15 -40z m-460 -370 c0 -5 -18 -10 -40 -10 -22 0 -40 5 -40 10 0 6
18 10 40 10 22 0 40 -4 40 -10z m380 0 c0 -5 -18 -10 -40 -10 -22 0 -40 5 -40
10 0 6 18 10 40 10 22 0 40 -4 40 -10z"/>
<path d="M210 549 c0 -5 5 -7 10 -4 6 3 10 8 10 11 0 2 -4 4 -10 4 -5 0 -10
-5 -10 -11z"/>
<path d="M520 525 c-15 -18 -10 -45 13 -59 34 -22 73 27 47 59 -16 19 -44 19
-60 0z m46 -16 c10 -17 -13 -36 -27 -22 -12 12 -4 33 11 33 5 0 12 -5 16 -11z"/>
<path d="M210 510 c0 -5 5 -10 10 -10 6 0 10 5 10 10 0 6 -4 10 -10 10 -5 0
-10 -4 -10 -10z"/>
<path d="M215 470 c3 -5 8 -10 11 -10 2 0 4 5 4 10 0 6 -5 10 -11 10 -5 0 -7
-4 -4 -10z"/>
<path d="M502 367 c-28 -30 -28 -68 1 -95 30 -28 68 -28 95 1 28 30 28 68 -1
95 -30 28 -68 28 -95 -1z m80 -14 c23 -21 23 -45 -2 -68 -45 -40 -105 20 -65
65 22 24 43 25 67 3z"/>
<path d="M165 210 c-3 -5 -1 -10 4 -10 6 0 11 5 11 10 0 6 -2 10 -4 10 -3 0
-8 -4 -11 -10z"/>
<path d="M200 209 c0 -5 5 -7 10 -4 6 3 10 8 10 11 0 2 -4 4 -10 4 -5 0 -10
-5 -10 -11z"/>
<path d="M240 209 c0 -5 5 -7 10 -4 6 3 10 8 10 11 0 2 -4 4 -10 4 -5 0 -10
-5 -10 -11z"/>
<path d="M280 209 c0 -5 5 -7 10 -4 6 3 10 8 10 11 0 2 -4 4 -10 4 -5 0 -10
-5 -10 -11z"/>
<path d="M320 209 c0 -5 5 -7 10 -4 6 3 10 8 10 11 0 2 -4 4 -10 4 -5 0 -10
-5 -10 -11z"/>
<path d="M365 210 c-3 -5 -1 -10 4 -10 6 0 11 5 11 10 0 6 -2 10 -4 10 -3 0
-8 -4 -11 -10z"/>
<path d="M405 210 c-3 -5 -1 -10 4 -10 6 0 11 5 11 10 0 6 -2 10 -4 10 -3 0
-8 -4 -11 -10z"/>
<path d="M440 209 c0 -5 5 -7 10 -4 6 3 10 8 10 11 0 2 -4 4 -10 4 -5 0 -10
-5 -10 -11z"/>
<path d="M480 209 c0 -5 5 -7 10 -4 6 3 10 8 10 11 0 2 -4 4 -10 4 -5 0 -10
-5 -10 -11z"/>
<path d="M520 209 c0 -5 5 -7 10 -4 6 3 10 8 10 11 0 2 -4 4 -10 4 -5 0 -10
-5 -10 -11z"/>
<path d="M560 209 c0 -5 5 -7 10 -4 6 3 10 8 10 11 0 2 -4 4 -10 4 -5 0 -10
-5 -10 -11z"/>
<path d="M605 210 c-3 -5 -1 -10 4 -10 6 0 11 5 11 10 0 6 -2 10 -4 10 -3 0
-8 -4 -11 -10z"/>
</g>
</svg>
